<svg width="312" height="40" viewBox="0 0 312 40" fill="none" xmlns="http://www.w3.org/2000/svg">
<g clip-path="url(#clip0_1_44)">
<path d="M19.5194 39.0691C8.80304 39.0691 0.0791795 30.3452 0.133061 19.6288C0.133061 8.91263 8.9108 0.188766 19.6272 0.242434C24.9585 0.242434 29.7511 2.45029 33.2515 5.95065L30.1281 9.07427C27.2741 6.22006 23.5043 4.65835 19.5194 4.65835C11.4417 4.65835 4.4951 11.2819 4.60265 19.7905C4.71041 27.9759 11.1725 34.5458 19.4656 34.6534C26.0893 34.6534 32.3359 30.1836 34.0593 23.2369C34.2748 22.2138 33.8438 21.8908 33.1437 21.8908H19.5194V17.4212H35.5132C37.5058 17.4212 38.7442 18.8212 38.7442 20.8677C38.7442 30.1838 30.3973 39.0691 19.5192 39.0691H19.5194Z" fill="#1F1F1F"/>
<path d="M53.5543 5.195H45.7997V17.4192H53.3388V21.8349H45.7997V34.0592H53.5543V38.4751H41.3301V0.779297H53.5543V5.19521V5.195Z" fill="#1F1F1F"/>
<path d="M57.377 0.779297H61.7388L68.2009 21.8349C68.3087 22.158 68.4701 22.2658 68.6856 22.2121C68.9011 22.1582 68.9011 21.8349 68.9011 21.6196L68.7395 0.779297H72.9938V38.4751H68.5779L62.1696 17.3653C62.1157 17.0962 62.008 16.8267 61.7388 16.8808C61.4157 16.9345 61.4696 17.3653 61.4696 17.6347L61.6312 38.4751H57.377V0.779297Z" fill="#1F1F1F"/>
<path d="M89.525 5.195H81.7704V17.4192H89.3095V21.8349H81.7704V34.0592H89.525V38.4751H77.3008V0.779297H89.525V5.19521V5.195Z" fill="#1F1F1F"/>
<path d="M103.362 21.8349H97.8153V38.4751H93.3457V0.779297H102.231C106.432 0.779297 108.909 3.41799 108.909 7.40307V15.5344C108.909 17.7423 108.155 18.7654 106.701 19.6269C108.262 20.4885 108.909 21.6733 108.909 23.6658V38.4749H104.439V22.9656C104.439 22.3196 103.954 21.8347 103.362 21.8347L103.362 21.8349ZM104.439 16.2881V6.32587C104.439 5.6795 103.955 5.195 103.362 5.195H97.8153V17.4192H103.362C103.955 17.4192 104.439 16.8806 104.439 16.2881Z" fill="#1F1F1F"/>
<path d="M120.809 0.1875C125.601 0.1875 128.563 3.79541 128.563 7.99581V38.4755H124.093V21.8354H117.47V38.4755H113V7.99581C113 3.52622 116.231 0.1875 120.808 0.1875H120.809ZM121.886 4.65709H119.678C118.439 4.65709 117.47 5.62652 117.47 6.86494V17.4197H124.094V6.86494C124.094 5.62631 123.124 4.65709 121.886 4.65709Z" fill="#1F1F1F"/>
<path d="M144.934 38.4751H140.303C135.241 38.4751 132.656 35.4055 132.656 30.8821V0.779297H137.126V32.9283C137.126 33.5205 137.664 34.0592 138.257 34.0592H144.934L144.934 38.4751Z" fill="#1F1F1F"/>
<path d="M174.604 39.0688C163.888 39.0688 155.164 30.3989 155.164 19.6286C155.164 8.85829 163.888 0.242188 174.604 0.242188C181.443 0.242188 187.421 3.79643 190.921 9.12769L187.205 11.5511C185.213 8.37378 181.12 4.65811 174.604 4.65811C166.365 4.65811 159.634 11.3894 159.634 19.6286C159.634 27.9218 166.311 34.6531 174.604 34.6531C180.797 34.6531 184.998 30.9913 187.152 27.8138L190.867 30.2372C187.421 35.5685 181.39 39.0686 174.604 39.0686L174.604 39.0688Z" fill="#1F1F1F"/>
<path d="M201.369 0.1875C206.162 0.1875 209.124 3.79541 209.124 7.99581V38.4755H204.654V21.8354H198.03V38.4755H193.561V7.99581C193.561 3.52622 196.791 0.1875 201.369 0.1875H201.369ZM202.446 4.65709H200.238C199 4.65709 198.031 5.62652 198.031 6.86494V17.4197H204.654V6.86494C204.654 5.62631 203.685 4.65709 202.446 4.65709Z" fill="#1F1F1F"/>
<path d="M226.841 5.19521H221.294V38.4751H216.824V5.19521H211.277V0.779297H226.84L226.841 5.19521Z" fill="#1F1F1F"/>
<path d="M236.803 0.1875C241.596 0.1875 244.557 3.79541 244.557 7.99581V38.4755H240.087V21.8354H233.464V38.4755H228.994V7.99581C228.994 3.52622 232.225 0.1875 236.803 0.1875ZM237.88 4.65709H235.672C234.433 4.65709 233.464 5.62652 233.464 6.86494V17.4197H240.088V6.86494C240.088 5.62631 239.119 4.65709 237.88 4.65709H237.88Z" fill="#1F1F1F"/>
<path d="M260.927 38.4751H256.295C251.233 38.4751 248.648 35.4055 248.648 30.8821V0.779297H253.118V32.9283C253.118 33.5205 253.657 34.0592 254.249 34.0592H260.926V38.4751H260.927Z" fill="#1F1F1F"/>
<path d="M269.973 21.8351V38.4214H265.504V21.8351C262.003 21.8351 259.957 19.3581 259.957 16.2884V0.779297H264.427V16.2884C264.427 16.8808 264.911 17.4194 265.504 17.4194H269.973C270.566 17.4194 271.051 16.8808 271.051 16.2884V0.779297H275.52V16.2884C275.52 19.3042 273.582 21.8351 269.973 21.8351Z" fill="#1F1F1F"/>
<path d="M294.366 24.9592V31.4752C294.366 35.8912 291.297 39.0682 286.827 39.0682H286.397C281.927 39.0682 278.857 35.8912 278.857 31.4752V26.844H283.273V33.5215C283.273 34.1139 283.758 34.6525 284.404 34.6525H288.82C289.466 34.6525 289.951 34.1139 289.951 33.5215V22.9128C289.951 22.3205 289.466 21.8356 288.82 21.8356H286.397C281.981 21.8356 278.857 18.6047 278.857 14.2426V7.78049C278.857 3.41867 281.981 0.1875 286.397 0.1875H286.827C291.243 0.1875 294.366 3.47234 294.366 7.78049V12.4656H289.951V5.73428C289.951 5.1418 289.466 4.65709 288.82 4.65709H284.404C283.758 4.65709 283.273 5.14159 283.273 5.73428V16.2888C283.273 16.8813 283.758 17.366 284.404 17.366H286.773C291.351 17.366 294.366 20.4896 294.366 24.9592Z" fill="#1F1F1F"/>
<path d="M311.921 5.19521H306.374V38.4751H301.904V5.19521H296.357V0.779297H311.92L311.921 5.19521Z" fill="#1F1F1F"/>
</g>
<defs>
<clipPath id="clip0_1_44">
<rect width="312" height="39.1863" fill="white"/>
</clipPath>
</defs>
</svg>
